<mxfile host="app.diagrams.net" modified="2023-12-10T12:15:19.205Z" agent="Mozilla/5.0 (Windows NT 10.0; Win64; x64) AppleWebKit/537.36 (KHTML, like Gecko) Chrome/119.0.0.0 Safari/537.36" etag="v9g3i5QQgyP6kV-PVSPv" version="22.1.7" type="device">
  <diagram id="C5RBs43oDa-KdzZeNtuy" name="Page-1">
    <mxGraphModel dx="842" dy="543" grid="0" gridSize="10" guides="1" tooltips="1" connect="1" arrows="1" fold="1" page="1" pageScale="1" pageWidth="1654" pageHeight="1169" math="0" shadow="0">
      <root>
        <mxCell id="WIyWlLk6GJQsqaUBKTNV-0" />
        <mxCell id="WIyWlLk6GJQsqaUBKTNV-1" parent="WIyWlLk6GJQsqaUBKTNV-0" />
        <mxCell id="Zp93wlZP0AYtjfvbbuVZ-0" value="Lexer" style="rounded=0;whiteSpace=wrap;html=1;labelBackgroundColor=none;" parent="WIyWlLk6GJQsqaUBKTNV-1" vertex="1">
          <mxGeometry x="110" y="60" width="120" height="60" as="geometry" />
        </mxCell>
        <mxCell id="Zp93wlZP0AYtjfvbbuVZ-4" value="Syntax tree" style="edgeStyle=orthogonalEdgeStyle;rounded=0;orthogonalLoop=1;jettySize=auto;html=1;entryX=0;entryY=0.5;entryDx=0;entryDy=0;labelBackgroundColor=none;fontColor=default;" parent="WIyWlLk6GJQsqaUBKTNV-1" source="Zp93wlZP0AYtjfvbbuVZ-1" target="Zp93wlZP0AYtjfvbbuVZ-3" edge="1">
          <mxGeometry y="12" relative="1" as="geometry">
            <mxPoint as="offset" />
          </mxGeometry>
        </mxCell>
        <mxCell id="Zp93wlZP0AYtjfvbbuVZ-1" value="Parser" style="rounded=0;whiteSpace=wrap;html=1;labelBackgroundColor=none;" parent="WIyWlLk6GJQsqaUBKTNV-1" vertex="1">
          <mxGeometry x="360" y="60" width="120" height="60" as="geometry" />
        </mxCell>
        <mxCell id="Zp93wlZP0AYtjfvbbuVZ-2" value="Token stream" style="endArrow=classic;html=1;rounded=0;exitX=1;exitY=0.5;exitDx=0;exitDy=0;entryX=0;entryY=0.5;entryDx=0;entryDy=0;labelBackgroundColor=none;fontColor=default;" parent="WIyWlLk6GJQsqaUBKTNV-1" edge="1">
          <mxGeometry y="11" width="50" height="50" relative="1" as="geometry">
            <mxPoint x="230" y="90" as="sourcePoint" />
            <mxPoint x="360" y="90" as="targetPoint" />
            <mxPoint as="offset" />
          </mxGeometry>
        </mxCell>
        <mxCell id="Zp93wlZP0AYtjfvbbuVZ-3" value="Visualizer" style="rounded=0;whiteSpace=wrap;html=1;labelBackgroundColor=none;" parent="WIyWlLk6GJQsqaUBKTNV-1" vertex="1">
          <mxGeometry x="600" y="60" width="120" height="60" as="geometry" />
        </mxCell>
        <mxCell id="Zp93wlZP0AYtjfvbbuVZ-5" value="Lexer" style="swimlane;startSize=0;verticalAlign=bottom;labelBackgroundColor=none;" parent="WIyWlLk6GJQsqaUBKTNV-1" vertex="1">
          <mxGeometry x="70" y="220" width="550" height="280" as="geometry">
            <mxRectangle x="70" y="220" width="50" height="40" as="alternateBounds" />
          </mxGeometry>
        </mxCell>
        <mxCell id="Zp93wlZP0AYtjfvbbuVZ-16" style="edgeStyle=orthogonalEdgeStyle;rounded=0;orthogonalLoop=1;jettySize=auto;html=1;exitX=1;exitY=0.5;exitDx=0;exitDy=0;labelBackgroundColor=none;fontColor=default;" parent="Zp93wlZP0AYtjfvbbuVZ-5" source="Zp93wlZP0AYtjfvbbuVZ-10" target="Zp93wlZP0AYtjfvbbuVZ-13" edge="1">
          <mxGeometry relative="1" as="geometry" />
        </mxCell>
        <mxCell id="Zp93wlZP0AYtjfvbbuVZ-10" value="Input String" style="html=1;dashed=0;whitespace=wrap;labelBackgroundColor=none;" parent="Zp93wlZP0AYtjfvbbuVZ-5" vertex="1">
          <mxGeometry x="-50" y="40" width="100" height="50" as="geometry" />
        </mxCell>
        <mxCell id="Zp93wlZP0AYtjfvbbuVZ-23" style="edgeStyle=orthogonalEdgeStyle;rounded=0;orthogonalLoop=1;jettySize=auto;html=1;exitX=1;exitY=0.5;exitDx=0;exitDy=0;labelBackgroundColor=none;fontColor=default;" parent="Zp93wlZP0AYtjfvbbuVZ-5" source="Zp93wlZP0AYtjfvbbuVZ-13" target="Zp93wlZP0AYtjfvbbuVZ-17" edge="1">
          <mxGeometry relative="1" as="geometry" />
        </mxCell>
        <mxCell id="Zp93wlZP0AYtjfvbbuVZ-24" style="edgeStyle=orthogonalEdgeStyle;rounded=0;orthogonalLoop=1;jettySize=auto;html=1;exitX=1;exitY=0.5;exitDx=0;exitDy=0;labelBackgroundColor=none;fontColor=default;" parent="Zp93wlZP0AYtjfvbbuVZ-5" source="Zp93wlZP0AYtjfvbbuVZ-13" target="Zp93wlZP0AYtjfvbbuVZ-19" edge="1">
          <mxGeometry relative="1" as="geometry">
            <mxPoint x="280" y="130" as="sourcePoint" />
            <Array as="points">
              <mxPoint x="300" y="65" />
              <mxPoint x="300" y="130" />
            </Array>
          </mxGeometry>
        </mxCell>
        <mxCell id="Zp93wlZP0AYtjfvbbuVZ-29" style="edgeStyle=orthogonalEdgeStyle;rounded=0;orthogonalLoop=1;jettySize=auto;html=1;exitX=1;exitY=0.5;exitDx=0;exitDy=0;labelBackgroundColor=none;fontColor=default;" parent="Zp93wlZP0AYtjfvbbuVZ-5" source="Zp93wlZP0AYtjfvbbuVZ-13" target="Zp93wlZP0AYtjfvbbuVZ-25" edge="1">
          <mxGeometry relative="1" as="geometry" />
        </mxCell>
        <mxCell id="Zp93wlZP0AYtjfvbbuVZ-13" value="Lexer" style="html=1;align=center;verticalAlign=middle;rounded=1;absoluteArcSize=1;arcSize=10;dashed=0;labelBackgroundColor=none;" parent="Zp93wlZP0AYtjfvbbuVZ-5" vertex="1">
          <mxGeometry x="112" y="45" width="140" height="40" as="geometry" />
        </mxCell>
        <mxCell id="Zp93wlZP0AYtjfvbbuVZ-32" style="edgeStyle=orthogonalEdgeStyle;rounded=0;orthogonalLoop=1;jettySize=auto;html=1;exitX=1;exitY=0.5;exitDx=0;exitDy=0;entryX=0;entryY=0.5;entryDx=0;entryDy=0;dashed=1;labelBackgroundColor=none;fontColor=default;" parent="Zp93wlZP0AYtjfvbbuVZ-5" source="Zp93wlZP0AYtjfvbbuVZ-17" target="Zp93wlZP0AYtjfvbbuVZ-31" edge="1">
          <mxGeometry relative="1" as="geometry">
            <Array as="points">
              <mxPoint x="480" y="65" />
              <mxPoint x="480" y="93" />
            </Array>
          </mxGeometry>
        </mxCell>
        <mxCell id="Zp93wlZP0AYtjfvbbuVZ-17" value="Token Stream" style="shape=rect;html=1;whiteSpace=wrap;align=center;labelBackgroundColor=none;" parent="Zp93wlZP0AYtjfvbbuVZ-5" vertex="1">
          <mxGeometry x="330" y="40" width="110" height="50" as="geometry" />
        </mxCell>
        <mxCell id="Zp93wlZP0AYtjfvbbuVZ-73" style="edgeStyle=orthogonalEdgeStyle;rounded=0;orthogonalLoop=1;jettySize=auto;html=1;exitX=1;exitY=0.5;exitDx=0;exitDy=0;dashed=1;startArrow=none;startFill=0;endArrow=none;endFill=0;labelBackgroundColor=none;fontColor=default;" parent="Zp93wlZP0AYtjfvbbuVZ-5" source="Zp93wlZP0AYtjfvbbuVZ-19" edge="1">
          <mxGeometry relative="1" as="geometry">
            <mxPoint x="480" y="93" as="targetPoint" />
          </mxGeometry>
        </mxCell>
        <mxCell id="Zp93wlZP0AYtjfvbbuVZ-19" value="Identifier Table" style="shape=rect;html=1;whiteSpace=wrap;align=center;labelBackgroundColor=none;" parent="Zp93wlZP0AYtjfvbbuVZ-5" vertex="1">
          <mxGeometry x="330" y="115" width="110" height="40" as="geometry" />
        </mxCell>
        <mxCell id="Zp93wlZP0AYtjfvbbuVZ-21" style="edgeStyle=orthogonalEdgeStyle;rounded=0;orthogonalLoop=1;jettySize=auto;html=1;exitX=0.5;exitY=1;exitDx=0;exitDy=0;labelBackgroundColor=none;fontColor=default;" parent="Zp93wlZP0AYtjfvbbuVZ-5" source="Zp93wlZP0AYtjfvbbuVZ-19" target="Zp93wlZP0AYtjfvbbuVZ-19" edge="1">
          <mxGeometry relative="1" as="geometry" />
        </mxCell>
        <mxCell id="Zp93wlZP0AYtjfvbbuVZ-34" style="edgeStyle=orthogonalEdgeStyle;rounded=0;orthogonalLoop=1;jettySize=auto;html=1;exitX=1;exitY=0.5;exitDx=0;exitDy=0;labelBackgroundColor=none;fontColor=default;" parent="Zp93wlZP0AYtjfvbbuVZ-5" source="Zp93wlZP0AYtjfvbbuVZ-25" target="Zp93wlZP0AYtjfvbbuVZ-31" edge="1">
          <mxGeometry relative="1" as="geometry">
            <Array as="points">
              <mxPoint x="530" y="206" />
            </Array>
          </mxGeometry>
        </mxCell>
        <mxCell id="Zp93wlZP0AYtjfvbbuVZ-36" value="[reached end ?]" style="edgeLabel;html=1;align=center;verticalAlign=middle;resizable=0;points=[];labelBackgroundColor=none;" parent="Zp93wlZP0AYtjfvbbuVZ-34" vertex="1" connectable="0">
          <mxGeometry x="-0.8872" y="1" relative="1" as="geometry">
            <mxPoint x="41" y="-6" as="offset" />
          </mxGeometry>
        </mxCell>
        <mxCell id="Zp93wlZP0AYtjfvbbuVZ-35" value="[else]" style="edgeStyle=orthogonalEdgeStyle;rounded=0;orthogonalLoop=1;jettySize=auto;html=1;exitX=0;exitY=0.5;exitDx=0;exitDy=0;entryX=0.5;entryY=1;entryDx=0;entryDy=0;labelBackgroundColor=none;fontColor=default;" parent="Zp93wlZP0AYtjfvbbuVZ-5" source="Zp93wlZP0AYtjfvbbuVZ-25" target="Zp93wlZP0AYtjfvbbuVZ-13" edge="1">
          <mxGeometry x="-0.598" y="-7" relative="1" as="geometry">
            <mxPoint as="offset" />
          </mxGeometry>
        </mxCell>
        <mxCell id="Zp93wlZP0AYtjfvbbuVZ-25" value="" style="shape=rhombus;html=1;verticalLabelPosition=bottom;verticalAlignment=top;labelBackgroundColor=none;" parent="Zp93wlZP0AYtjfvbbuVZ-5" vertex="1">
          <mxGeometry x="260" y="193" width="30" height="26" as="geometry" />
        </mxCell>
        <mxCell id="Zp93wlZP0AYtjfvbbuVZ-31" value="Accept" style="html=1;align=center;verticalAlign=middle;rounded=1;absoluteArcSize=1;arcSize=10;dashed=0;labelBackgroundColor=none;" parent="Zp93wlZP0AYtjfvbbuVZ-5" vertex="1">
          <mxGeometry x="510" y="70" width="90" height="45" as="geometry" />
        </mxCell>
        <mxCell id="Zp93wlZP0AYtjfvbbuVZ-39" value="Parser" style="swimlane;startSize=0;verticalAlign=bottom;labelBackgroundColor=none;" parent="WIyWlLk6GJQsqaUBKTNV-1" vertex="1">
          <mxGeometry x="810" y="250" width="520" height="150" as="geometry" />
        </mxCell>
        <mxCell id="Zp93wlZP0AYtjfvbbuVZ-55" value="Compute Stack" style="html=1;align=center;verticalAlign=middle;rounded=1;absoluteArcSize=1;arcSize=10;dashed=0;labelBackgroundColor=none;" parent="Zp93wlZP0AYtjfvbbuVZ-39" vertex="1">
          <mxGeometry x="120" y="37.5" width="110" height="50" as="geometry" />
        </mxCell>
        <mxCell id="Zp93wlZP0AYtjfvbbuVZ-65" style="edgeStyle=orthogonalEdgeStyle;rounded=0;orthogonalLoop=1;jettySize=auto;html=1;exitX=1;exitY=0.5;exitDx=0;exitDy=0;entryX=0;entryY=0.5;entryDx=0;entryDy=0;labelBackgroundColor=none;fontColor=default;" parent="Zp93wlZP0AYtjfvbbuVZ-39" source="Zp93wlZP0AYtjfvbbuVZ-59" target="Zp93wlZP0AYtjfvbbuVZ-63" edge="1">
          <mxGeometry relative="1" as="geometry" />
        </mxCell>
        <mxCell id="Zp93wlZP0AYtjfvbbuVZ-59" value="" style="shape=rect;html=1;whiteSpace=wrap;align=center;labelBackgroundColor=none;" parent="Zp93wlZP0AYtjfvbbuVZ-39" vertex="1">
          <mxGeometry x="230" y="57.5" width="10" height="10" as="geometry" />
        </mxCell>
        <mxCell id="Zp93wlZP0AYtjfvbbuVZ-61" value="Build Tree" style="html=1;align=center;verticalAlign=middle;rounded=1;absoluteArcSize=1;arcSize=10;dashed=0;labelBackgroundColor=none;" parent="Zp93wlZP0AYtjfvbbuVZ-39" vertex="1">
          <mxGeometry x="300" y="37.5" width="110" height="50" as="geometry" />
        </mxCell>
        <mxCell id="Zp93wlZP0AYtjfvbbuVZ-63" value="" style="shape=rect;html=1;whiteSpace=wrap;align=center;labelBackgroundColor=none;" parent="Zp93wlZP0AYtjfvbbuVZ-39" vertex="1">
          <mxGeometry x="290" y="57.5" width="10" height="10" as="geometry" />
        </mxCell>
        <mxCell id="Zp93wlZP0AYtjfvbbuVZ-66" style="edgeStyle=orthogonalEdgeStyle;rounded=0;orthogonalLoop=1;jettySize=auto;html=1;exitX=0.5;exitY=0;exitDx=0;exitDy=0;entryX=0.5;entryY=1;entryDx=0;entryDy=0;labelBackgroundColor=none;fontColor=default;" parent="WIyWlLk6GJQsqaUBKTNV-1" source="Zp93wlZP0AYtjfvbbuVZ-40" target="Zp93wlZP0AYtjfvbbuVZ-55" edge="1">
          <mxGeometry relative="1" as="geometry" />
        </mxCell>
        <mxCell id="Zp93wlZP0AYtjfvbbuVZ-40" value="Parse Table" style="shape=rect;html=1;whiteSpace=wrap;align=center;labelBackgroundColor=none;" parent="WIyWlLk6GJQsqaUBKTNV-1" vertex="1">
          <mxGeometry x="905" y="450" width="160" height="80" as="geometry" />
        </mxCell>
        <mxCell id="Zp93wlZP0AYtjfvbbuVZ-56" style="edgeStyle=orthogonalEdgeStyle;rounded=0;orthogonalLoop=1;jettySize=auto;html=1;exitX=1;exitY=0.5;exitDx=0;exitDy=0;entryX=0;entryY=0.5;entryDx=0;entryDy=0;labelBackgroundColor=none;fontColor=default;" parent="WIyWlLk6GJQsqaUBKTNV-1" source="Zp93wlZP0AYtjfvbbuVZ-45" target="Zp93wlZP0AYtjfvbbuVZ-55" edge="1">
          <mxGeometry relative="1" as="geometry" />
        </mxCell>
        <mxCell id="Zp93wlZP0AYtjfvbbuVZ-45" value="Token Stream" style="shape=rect;html=1;whiteSpace=wrap;align=center;labelBackgroundColor=none;" parent="WIyWlLk6GJQsqaUBKTNV-1" vertex="1">
          <mxGeometry x="760" y="292.5" width="100" height="40" as="geometry" />
        </mxCell>
        <mxCell id="Zp93wlZP0AYtjfvbbuVZ-54" style="edgeStyle=orthogonalEdgeStyle;rounded=0;orthogonalLoop=1;jettySize=auto;html=1;exitX=1;exitY=0.5;exitDx=0;exitDy=0;entryX=0;entryY=0.5;entryDx=0;entryDy=0;labelBackgroundColor=none;fontColor=default;" parent="WIyWlLk6GJQsqaUBKTNV-1" source="Zp93wlZP0AYtjfvbbuVZ-53" target="Zp93wlZP0AYtjfvbbuVZ-45" edge="1">
          <mxGeometry relative="1" as="geometry" />
        </mxCell>
        <mxCell id="Zp93wlZP0AYtjfvbbuVZ-53" value="" style="shape=rect;html=1;whiteSpace=wrap;align=center;labelBackgroundColor=none;" parent="WIyWlLk6GJQsqaUBKTNV-1" vertex="1">
          <mxGeometry x="670" y="307.5" width="10" height="10" as="geometry" />
        </mxCell>
        <mxCell id="Zp93wlZP0AYtjfvbbuVZ-60" value="" style="shape=rect;html=1;whiteSpace=wrap;align=center;labelBackgroundColor=none;" parent="WIyWlLk6GJQsqaUBKTNV-1" vertex="1">
          <mxGeometry x="670" y="307.5" width="10" height="10" as="geometry" />
        </mxCell>
        <mxCell id="Zp93wlZP0AYtjfvbbuVZ-70" style="edgeStyle=orthogonalEdgeStyle;rounded=0;orthogonalLoop=1;jettySize=auto;html=1;exitX=1;exitY=0.5;exitDx=0;exitDy=0;entryX=0;entryY=0.5;entryDx=0;entryDy=0;labelBackgroundColor=none;fontColor=default;" parent="WIyWlLk6GJQsqaUBKTNV-1" source="Zp93wlZP0AYtjfvbbuVZ-67" target="Zp93wlZP0AYtjfvbbuVZ-69" edge="1">
          <mxGeometry relative="1" as="geometry" />
        </mxCell>
        <mxCell id="Zp93wlZP0AYtjfvbbuVZ-67" value="Syntax Tree" style="shape=rect;html=1;whiteSpace=wrap;align=center;labelBackgroundColor=none;" parent="WIyWlLk6GJQsqaUBKTNV-1" vertex="1">
          <mxGeometry x="1280" y="292.5" width="100" height="40" as="geometry" />
        </mxCell>
        <mxCell id="Zp93wlZP0AYtjfvbbuVZ-68" style="edgeStyle=orthogonalEdgeStyle;rounded=0;orthogonalLoop=1;jettySize=auto;html=1;exitX=1;exitY=0.5;exitDx=0;exitDy=0;labelBackgroundColor=none;fontColor=default;" parent="WIyWlLk6GJQsqaUBKTNV-1" source="Zp93wlZP0AYtjfvbbuVZ-61" target="Zp93wlZP0AYtjfvbbuVZ-67" edge="1">
          <mxGeometry relative="1" as="geometry" />
        </mxCell>
        <mxCell id="Zp93wlZP0AYtjfvbbuVZ-69" value="visualize" style="html=1;align=center;verticalAlign=middle;rounded=1;absoluteArcSize=1;arcSize=10;dashed=0;labelBackgroundColor=none;" parent="WIyWlLk6GJQsqaUBKTNV-1" vertex="1">
          <mxGeometry x="1480" y="277.5" width="140" height="70" as="geometry" />
        </mxCell>
        <mxCell id="Zp93wlZP0AYtjfvbbuVZ-74" value="Compute Stack" style="swimlane;startSize=0;verticalAlign=bottom;labelBackgroundColor=none;" parent="WIyWlLk6GJQsqaUBKTNV-1" vertex="1">
          <mxGeometry x="87" y="650" width="680" height="295" as="geometry" />
        </mxCell>
        <mxCell id="Zp93wlZP0AYtjfvbbuVZ-79" style="edgeStyle=orthogonalEdgeStyle;rounded=0;orthogonalLoop=1;jettySize=auto;html=1;exitX=1;exitY=0.5;exitDx=0;exitDy=0;startArrow=none;startFill=0;endArrow=classic;endFill=1;entryX=0;entryY=0.5;entryDx=0;entryDy=0;labelBackgroundColor=none;fontColor=default;" parent="Zp93wlZP0AYtjfvbbuVZ-74" source="Zp93wlZP0AYtjfvbbuVZ-75" target="Zp93wlZP0AYtjfvbbuVZ-78" edge="1">
          <mxGeometry relative="1" as="geometry" />
        </mxCell>
        <mxCell id="Zp93wlZP0AYtjfvbbuVZ-75" value="Token Stream" style="shape=rect;html=1;whiteSpace=wrap;align=center;labelBackgroundColor=none;" parent="Zp93wlZP0AYtjfvbbuVZ-74" vertex="1">
          <mxGeometry x="-50" y="129.97" width="100" height="40" as="geometry" />
        </mxCell>
        <mxCell id="Zp93wlZP0AYtjfvbbuVZ-78" value="Read first&lt;br&gt;input" style="rounded=1;whiteSpace=wrap;html=1;labelBackgroundColor=none;" parent="Zp93wlZP0AYtjfvbbuVZ-74" vertex="1">
          <mxGeometry x="90" y="182.47" width="78" height="35" as="geometry" />
        </mxCell>
        <mxCell id="Zp93wlZP0AYtjfvbbuVZ-119" style="edgeStyle=orthogonalEdgeStyle;rounded=0;orthogonalLoop=1;jettySize=auto;html=1;exitX=1;exitY=0.5;exitDx=0;exitDy=0;entryX=0;entryY=0.5;entryDx=0;entryDy=0;startArrow=none;startFill=0;endArrow=classic;endFill=1;labelBackgroundColor=none;fontColor=default;" parent="Zp93wlZP0AYtjfvbbuVZ-74" source="Zp93wlZP0AYtjfvbbuVZ-81" target="Zp93wlZP0AYtjfvbbuVZ-114" edge="1">
          <mxGeometry relative="1" as="geometry" />
        </mxCell>
        <mxCell id="Zp93wlZP0AYtjfvbbuVZ-81" value="" style="shape=rect;html=1;whiteSpace=wrap;align=center;labelBackgroundColor=none;" parent="Zp93wlZP0AYtjfvbbuVZ-74" vertex="1">
          <mxGeometry x="168" y="194.97" width="10" height="10" as="geometry" />
        </mxCell>
        <mxCell id="Zp93wlZP0AYtjfvbbuVZ-96" style="edgeStyle=orthogonalEdgeStyle;rounded=0;orthogonalLoop=1;jettySize=auto;html=1;exitX=1;exitY=0.5;exitDx=0;exitDy=0;entryX=0;entryY=0.5;entryDx=0;entryDy=0;startArrow=none;startFill=0;endArrow=classic;endFill=1;labelBackgroundColor=none;fontColor=default;" parent="Zp93wlZP0AYtjfvbbuVZ-74" source="Zp93wlZP0AYtjfvbbuVZ-82" target="Zp93wlZP0AYtjfvbbuVZ-94" edge="1">
          <mxGeometry relative="1" as="geometry" />
        </mxCell>
        <mxCell id="Zp93wlZP0AYtjfvbbuVZ-109" style="edgeStyle=orthogonalEdgeStyle;rounded=0;orthogonalLoop=1;jettySize=auto;html=1;exitX=1;exitY=0.5;exitDx=0;exitDy=0;startArrow=none;startFill=0;endArrow=classic;endFill=1;labelBackgroundColor=none;fontColor=default;" parent="Zp93wlZP0AYtjfvbbuVZ-74" source="Zp93wlZP0AYtjfvbbuVZ-82" target="Zp93wlZP0AYtjfvbbuVZ-104" edge="1">
          <mxGeometry relative="1" as="geometry">
            <Array as="points">
              <mxPoint x="403" y="200" />
            </Array>
          </mxGeometry>
        </mxCell>
        <mxCell id="Zp93wlZP0AYtjfvbbuVZ-110" style="edgeStyle=orthogonalEdgeStyle;rounded=0;orthogonalLoop=1;jettySize=auto;html=1;exitX=1;exitY=0.5;exitDx=0;exitDy=0;entryX=0.75;entryY=0;entryDx=0;entryDy=0;startArrow=none;startFill=0;endArrow=classic;endFill=1;labelBackgroundColor=none;fontColor=default;" parent="Zp93wlZP0AYtjfvbbuVZ-74" source="Zp93wlZP0AYtjfvbbuVZ-82" target="Zp93wlZP0AYtjfvbbuVZ-75" edge="1">
          <mxGeometry relative="1" as="geometry">
            <Array as="points">
              <mxPoint x="460" y="200" />
              <mxPoint x="460" y="25" />
              <mxPoint x="25" y="25" />
            </Array>
          </mxGeometry>
        </mxCell>
        <mxCell id="Zp93wlZP0AYtjfvbbuVZ-82" value="Compute Step" style="html=1;align=center;verticalAlign=middle;rounded=1;absoluteArcSize=1;arcSize=10;dashed=0;labelBackgroundColor=none;" parent="Zp93wlZP0AYtjfvbbuVZ-74" vertex="1">
          <mxGeometry x="292.5" y="184.97" width="90" height="30" as="geometry" />
        </mxCell>
        <mxCell id="Zp93wlZP0AYtjfvbbuVZ-83" value="Read first&lt;br&gt;&amp;nbsp;Stack&amp;nbsp;" style="html=1;align=center;verticalAlign=middle;rounded=1;absoluteArcSize=1;arcSize=10;dashed=0;labelBackgroundColor=none;" parent="Zp93wlZP0AYtjfvbbuVZ-74" vertex="1">
          <mxGeometry x="131" y="104.97" width="77" height="40" as="geometry" />
        </mxCell>
        <mxCell id="Zp93wlZP0AYtjfvbbuVZ-107" style="edgeStyle=orthogonalEdgeStyle;rounded=0;orthogonalLoop=1;jettySize=auto;html=1;exitX=1;exitY=0.5;exitDx=0;exitDy=0;entryX=0.5;entryY=0;entryDx=0;entryDy=0;startArrow=none;startFill=0;endArrow=classic;endFill=1;labelBackgroundColor=none;fontColor=default;" parent="Zp93wlZP0AYtjfvbbuVZ-74" source="Zp93wlZP0AYtjfvbbuVZ-84" target="Zp93wlZP0AYtjfvbbuVZ-101" edge="1">
          <mxGeometry relative="1" as="geometry" />
        </mxCell>
        <mxCell id="Zp93wlZP0AYtjfvbbuVZ-84" value="" style="shape=rect;html=1;whiteSpace=wrap;align=center;labelBackgroundColor=none;" parent="Zp93wlZP0AYtjfvbbuVZ-74" vertex="1">
          <mxGeometry x="208" y="119.97" width="10" height="10" as="geometry" />
        </mxCell>
        <mxCell id="Zp93wlZP0AYtjfvbbuVZ-87" value="" style="shape=rect;html=1;whiteSpace=wrap;align=center;labelBackgroundColor=none;" parent="Zp93wlZP0AYtjfvbbuVZ-74" vertex="1">
          <mxGeometry x="282.5" y="194.97" width="10" height="10" as="geometry" />
        </mxCell>
        <mxCell id="Zp93wlZP0AYtjfvbbuVZ-94" value="Actions" style="shape=rect;html=1;whiteSpace=wrap;align=center;labelBackgroundColor=none;" parent="Zp93wlZP0AYtjfvbbuVZ-74" vertex="1">
          <mxGeometry x="490" y="179.97" width="95" height="40" as="geometry" />
        </mxCell>
        <mxCell id="Zp93wlZP0AYtjfvbbuVZ-101" value="" style="shape=rect;html=1;whiteSpace=wrap;align=center;labelBackgroundColor=none;" parent="Zp93wlZP0AYtjfvbbuVZ-74" vertex="1">
          <mxGeometry x="310" y="174.97" width="10" height="10" as="geometry" />
        </mxCell>
        <mxCell id="Zp93wlZP0AYtjfvbbuVZ-106" style="edgeStyle=orthogonalEdgeStyle;rounded=0;orthogonalLoop=1;jettySize=auto;html=1;exitX=0;exitY=0.5;exitDx=0;exitDy=0;entryX=0.5;entryY=0;entryDx=0;entryDy=0;startArrow=none;startFill=0;endArrow=classic;endFill=1;labelBackgroundColor=none;fontColor=default;" parent="Zp93wlZP0AYtjfvbbuVZ-74" source="Zp93wlZP0AYtjfvbbuVZ-104" target="Zp93wlZP0AYtjfvbbuVZ-83" edge="1">
          <mxGeometry relative="1" as="geometry" />
        </mxCell>
        <mxCell id="Zp93wlZP0AYtjfvbbuVZ-104" value="Stack" style="shape=rect;html=1;whiteSpace=wrap;align=center;labelBackgroundColor=none;" parent="Zp93wlZP0AYtjfvbbuVZ-74" vertex="1">
          <mxGeometry x="335" y="55" width="95" height="40" as="geometry" />
        </mxCell>
        <mxCell id="Zp93wlZP0AYtjfvbbuVZ-120" value="[else]" style="edgeStyle=orthogonalEdgeStyle;rounded=0;orthogonalLoop=1;jettySize=auto;html=1;exitX=1;exitY=0.5;exitDx=0;exitDy=0;entryX=0;entryY=0.5;entryDx=0;entryDy=0;startArrow=none;startFill=0;endArrow=classic;endFill=1;labelBackgroundColor=none;fontColor=default;" parent="Zp93wlZP0AYtjfvbbuVZ-74" source="Zp93wlZP0AYtjfvbbuVZ-114" target="Zp93wlZP0AYtjfvbbuVZ-87" edge="1">
          <mxGeometry x="-0.1927" y="7" relative="1" as="geometry">
            <mxPoint as="offset" />
          </mxGeometry>
        </mxCell>
        <mxCell id="Zp93wlZP0AYtjfvbbuVZ-114" value="" style="shape=rhombus;html=1;verticalLabelPosition=top;verticalAlignment=bottom;labelBackgroundColor=none;" parent="Zp93wlZP0AYtjfvbbuVZ-74" vertex="1">
          <mxGeometry x="208" y="189.97000000000003" width="20" height="20" as="geometry" />
        </mxCell>
        <mxCell id="Zp93wlZP0AYtjfvbbuVZ-112" style="edgeStyle=orthogonalEdgeStyle;rounded=0;orthogonalLoop=1;jettySize=auto;html=1;exitX=0.5;exitY=0;exitDx=0;exitDy=0;startArrow=none;startFill=0;endArrow=classic;endFill=1;dashed=1;labelBackgroundColor=none;fontColor=default;" parent="WIyWlLk6GJQsqaUBKTNV-1" source="Zp93wlZP0AYtjfvbbuVZ-90" target="Zp93wlZP0AYtjfvbbuVZ-82" edge="1">
          <mxGeometry relative="1" as="geometry" />
        </mxCell>
        <mxCell id="Zp93wlZP0AYtjfvbbuVZ-90" value="Parse Table" style="shape=rect;html=1;whiteSpace=wrap;align=center;direction=east;labelBackgroundColor=none;" parent="WIyWlLk6GJQsqaUBKTNV-1" vertex="1">
          <mxGeometry x="357" y="975" width="135" height="60" as="geometry" />
        </mxCell>
        <mxCell id="Zp93wlZP0AYtjfvbbuVZ-93" value="accept" style="html=1;align=center;verticalAlign=middle;rounded=1;absoluteArcSize=1;arcSize=10;dashed=0;labelBackgroundColor=none;" parent="WIyWlLk6GJQsqaUBKTNV-1" vertex="1">
          <mxGeometry x="727" y="829.97" width="90" height="40" as="geometry" />
        </mxCell>
        <mxCell id="Zp93wlZP0AYtjfvbbuVZ-95" style="edgeStyle=orthogonalEdgeStyle;rounded=0;orthogonalLoop=1;jettySize=auto;html=1;exitX=1;exitY=0.5;exitDx=0;exitDy=0;entryX=0;entryY=0.5;entryDx=0;entryDy=0;startArrow=none;startFill=0;endArrow=classic;endFill=1;dashed=1;labelBackgroundColor=none;fontColor=default;" parent="WIyWlLk6GJQsqaUBKTNV-1" source="Zp93wlZP0AYtjfvbbuVZ-94" target="Zp93wlZP0AYtjfvbbuVZ-93" edge="1">
          <mxGeometry relative="1" as="geometry" />
        </mxCell>
        <mxCell id="Zp93wlZP0AYtjfvbbuVZ-125" value="[first input == $]" style="edgeStyle=orthogonalEdgeStyle;rounded=0;orthogonalLoop=1;jettySize=auto;html=1;exitX=0.5;exitY=1;exitDx=0;exitDy=0;startArrow=none;startFill=0;endArrow=classic;endFill=1;labelBackgroundColor=none;fontColor=default;" parent="WIyWlLk6GJQsqaUBKTNV-1" source="Zp93wlZP0AYtjfvbbuVZ-114" target="Zp93wlZP0AYtjfvbbuVZ-93" edge="1">
          <mxGeometry x="-0.6165" y="9" relative="1" as="geometry">
            <Array as="points">
              <mxPoint x="305" y="910" />
              <mxPoint x="747" y="910" />
            </Array>
            <mxPoint as="offset" />
          </mxGeometry>
        </mxCell>
        <mxCell id="Zp93wlZP0AYtjfvbbuVZ-148" value="" style="shape=rect;html=1;whiteSpace=wrap;align=center;labelBackgroundColor=none;" parent="WIyWlLk6GJQsqaUBKTNV-1" vertex="1">
          <mxGeometry x="817" y="844.97" width="10" height="10" as="geometry" />
        </mxCell>
      </root>
    </mxGraphModel>
  </diagram>
</mxfile>
